<svg width="256" height="256" viewBox="0 0 256 256" fill="none" xmlns="http://www.w3.org/2000/svg">
  <defs>
    <linearGradient id="armor" x1="0" y1="0" x2="0" y2="1">
      <stop offset="0%" stop-color="#1e293b"/>
      <stop offset="100%" stop-color="#0f172a"/>
    </linearGradient>
    <linearGradient id="visor" x1="0" y1="0" x2="1" y2="0">
      <stop offset="0%" stop-color="#000"/>
      <stop offset="50%" stop-color="#333"/>
      <stop offset="100%" stop-color="#000"/>
    </linearGradient>
  </defs>
  
  <!-- Main Body Armor -->
  <path d="M 78 40 L 178 40 L 200 80 L 180 200 L 76 200 L 56 80 L 78 40 Z" fill="url(#armor)" stroke="#334155" stroke-width="4"/>
  
  <!-- Siren Lights -->
  <rect x="88" y="20" width="30" height="20" fill="#ef4444"/>
  <rect x="138" y="20" width="30" height="20" fill="#2563eb"/>
  
  <!-- Visor -->
  <path d="M 66 90 L 190 90 L 185 130 L 71 130 L 66 90 Z" fill="url(#visor)"/>
  <circle cx="128" cy="110" r="12" fill="#ef4444" opacity="0.8">
    <animate attributeName="cx" values="80;176;80" dur="2s" repeatCount="indefinite"/>
  </circle>
  
  <!-- Shield Emblem -->
  <path d="M 128 150 L 148 160 L 148 180 L 128 190 L 108 180 L 108 160 L 128 150 Z" fill="#94a3b8" stroke="#cbd5e1" stroke-width="2"/>
  
  <!-- Shoulder Pads -->
  <path d="M 56 80 L 30 100 L 40 140 L 68 110" fill="#334155"/>
  <path d="M 200 80 L 226 100 L 216 140 L 188 110" fill="#334155"/>
</svg>
